# Blender v2.78 (sub 0) OBJ File: 'Skybox Example.blend'
# www.blender.org
mtllib Skybox.mtl
o Skybox_Mesh
v 31.331884 0.000000 -31.331882
v 31.331884 0.000000 31.331884
v -31.331888 0.000000 31.331879
v -31.331873 0.000000 -31.331896
v 31.331900 62.663769 -31.331867
v 31.331863 62.663769 31.331903
v -31.331896 62.663769 31.331873
v -31.331882 62.663769 -31.331884
vt 0.7530 0.7537
vt 0.2476 0.2474
vt 0.7530 0.2474
vt 1.0000 0.2474
vt 1.0000 0.7537
vt 0.2476 0.0000
vt 0.7530 0.0000
vt 0.0000 0.7537
vt 0.0000 0.2474
vt 0.7530 1.0000
vt 0.2476 0.7537
vt 0.2476 1.0000
vn 0.0000 -1.0000 0.0000
vn -1.0000 -0.0000 0.0000
vn -0.0000 -0.0000 -1.0000
vn 1.0000 -0.0000 -0.0000
vn 0.0000 0.0000 1.0000
usemtl Skybox
s off
f 7/2/1 5/1/1 6/3/1
f 2/4/2 5/1/2 1/5/2
f 3/6/3 6/3/3 2/7/3
f 4/8/4 7/2/4 3/9/4
f 8/11/5 1/10/5 5/1/5
f 8/11/1 5/1/1 7/2/1
f 6/3/2 5/1/2 2/4/2
f 7/2/3 6/3/3 3/6/3
f 8/11/4 7/2/4 4/8/4
f 4/12/5 1/10/5 8/11/5
